<svg xmlns="http://www.w3.org/2000/svg" width="1440" height="1100" viewBox="0 0 1440 1100">
<rect width="1440" height="1100" fill="#f8f8fc"/>
<rect x="0" y="0" width="250" height="1100" fill="#26215C"/>
<text x="34" y="55" fill="white" font-size="28" font-family="Arial" font-weight="700">Rentora</text>
<text x="34" y="118" fill="#d9d6ff" font-size="16" font-family="Arial">Home</text><text x="34" y="166" fill="white" font-size="17" font-family="Arial" font-weight="700">Discover</text><text x="34" y="214" fill="#d9d6ff" font-size="16" font-family="Arial">Owner Hub</text><text x="34" y="262" fill="#d9d6ff" font-size="16" font-family="Arial">Activity</text><text x="34" y="310" fill="#d9d6ff" font-size="16" font-family="Arial">Profile</text>
<rect x="250" y="0" width="1190" height="74" fill="white"/><text x="286" y="45" fill="#171629" font-size="20" font-family="Arial" font-weight="700">Discover</text><text x="1280" y="45" fill="#534AB7" font-size="16" font-family="Arial">♡  🔔  💬  👤</text>
<text x="286" y="128" fill="#171629" font-size="34" font-family="Arial" font-weight="700">چیزی برای اجاره پیدا کن</text>
<text x="286" y="158" fill="#6b6b80" font-size="16" font-family="Arial">جست‌وجو کن، فیلتر کن و از بین گزینه‌های واقعی انتخاب کن.</text>
<rect x="286" y="185" width="720" height="56" rx="14" fill="white" stroke="#d9d8e8"/><text x="312" y="220" fill="#9998aa" font-size="16" font-family="Arial">🔍  دوربین، ابزار، خودرو، وسایل کمپ...</text><text x="970" y="220" fill="#77768a" font-size="14" font-family="Arial">×</text>
<rect x="1020" y="185" width="130" height="56" rx="14" fill="#26215C"/><text x="1053" y="220" fill="white" font-size="15" font-family="Arial" font-weight="700">فیلترها</text>
<text x="286" y="286" fill="#222136" font-size="15" font-family="Arial" font-weight="700">دسته‌بندی</text>
<rect x="286" y="303" width="115" height="40" rx="20" fill="#26215C"/><text x="321" y="328" fill="white" font-size="14" font-family="Arial">همه</text>
<rect x="410" y="303" width="115" height="40" rx="20" fill="white" stroke="#ddd"/><text x="437" y="328" fill="#444" font-size="14" font-family="Arial">ابزار</text>
<rect x="534" y="303" width="115" height="40" rx="20" fill="white" stroke="#ddd"/><text x="558" y="328" fill="#444" font-size="14" font-family="Arial">دوربین</text>
<rect x="658" y="303" width="115" height="40" rx="20" fill="white" stroke="#ddd"/><text x="682" y="328" fill="#444" font-size="14" font-family="Arial">کمپ</text>
<rect x="782" y="303" width="115" height="40" rx="20" fill="white" stroke="#ddd"/><text x="805" y="328" fill="#444" font-size="14" font-family="Arial">ورزش</text>
<rect x="906" y="303" width="115" height="40" rx="20" fill="white" stroke="#ddd"/><text x="926" y="328" fill="#444" font-size="14" font-family="Arial">خودرو</text>
<text x="286" y="391" fill="#222136" font-size="21" font-family="Arial" font-weight="700">۱۲۴ مورد پیدا شد</text><text x="1080" y="391" fill="#6b6b80" font-size="14" font-family="Arial">مرتب‌سازی: مرتبط‌ترین ▾</text>
<rect x="286" y="420" width="250" height="270" rx="16" fill="white" stroke="#e1e0ea"/><rect x="296" y="430" width="230" height="135" rx="12" fill="#eeedfe"/><text x="311" y="460" fill="#534AB7" font-size="30" font-family="Arial">▧</text><text x="311" y="598" fill="#222136" font-size="17" font-family="Arial" font-weight="700">آیتم واقعی 1</text><text x="311" y="625" fill="#77768a" font-size="13" font-family="Arial">✓ احراز هویت شده · نزدیک</text><text x="311" y="655" fill="#0F6E56" font-size="16" font-family="Arial" font-weight="700">12 π / روز</text><text x="311" y="678" fill="#77768a" font-size="12" font-family="Arial">★ 4.5  ·  تهران</text><rect x="560" y="420" width="250" height="270" rx="16" fill="white" stroke="#e1e0ea"/><rect x="570" y="430" width="230" height="135" rx="12" fill="#eeedfe"/><text x="585" y="460" fill="#534AB7" font-size="30" font-family="Arial">▧</text><text x="585" y="598" fill="#222136" font-size="17" font-family="Arial" font-weight="700">آیتم واقعی 2</text><text x="585" y="625" fill="#77768a" font-size="13" font-family="Arial">✓ احراز هویت شده · نزدیک</text><text x="585" y="655" fill="#0F6E56" font-size="16" font-family="Arial" font-weight="700">13 π / روز</text><text x="585" y="678" fill="#77768a" font-size="12" font-family="Arial">★ 4.6  ·  تهران</text><rect x="834" y="420" width="250" height="270" rx="16" fill="white" stroke="#e1e0ea"/><rect x="844" y="430" width="230" height="135" rx="12" fill="#eeedfe"/><text x="859" y="460" fill="#534AB7" font-size="30" font-family="Arial">▧</text><text x="859" y="598" fill="#222136" font-size="17" font-family="Arial" font-weight="700">آیتم واقعی 3</text><text x="859" y="625" fill="#77768a" font-size="13" font-family="Arial">✓ احراز هویت شده · نزدیک</text><text x="859" y="655" fill="#0F6E56" font-size="16" font-family="Arial" font-weight="700">14 π / روز</text><text x="859" y="678" fill="#77768a" font-size="12" font-family="Arial">★ 4.7  ·  تهران</text><rect x="1108" y="420" width="250" height="270" rx="16" fill="white" stroke="#e1e0ea"/><rect x="1118" y="430" width="230" height="135" rx="12" fill="#eeedfe"/><text x="1133" y="460" fill="#534AB7" font-size="30" font-family="Arial">▧</text><text x="1133" y="598" fill="#222136" font-size="17" font-family="Arial" font-weight="700">آیتم واقعی 4</text><text x="1133" y="625" fill="#77768a" font-size="13" font-family="Arial">✓ احراز هویت شده · نزدیک</text><text x="1133" y="655" fill="#0F6E56" font-size="16" font-family="Arial" font-weight="700">15 π / روز</text><text x="1133" y="678" fill="#77768a" font-size="12" font-family="Arial">★ 4.8  ·  تهران</text><rect x="286" y="720" width="250" height="270" rx="16" fill="white" stroke="#e1e0ea"/><rect x="296" y="730" width="230" height="135" rx="12" fill="#eeedfe"/><text x="311" y="760" fill="#534AB7" font-size="30" font-family="Arial">▧</text><text x="311" y="898" fill="#222136" font-size="17" font-family="Arial" font-weight="700">آیتم واقعی 5</text><text x="311" y="925" fill="#77768a" font-size="13" font-family="Arial">✓ احراز هویت شده · نزدیک</text><text x="311" y="955" fill="#0F6E56" font-size="16" font-family="Arial" font-weight="700">16 π / روز</text><text x="311" y="978" fill="#77768a" font-size="12" font-family="Arial">★ 4.9  ·  تهران</text><rect x="560" y="720" width="250" height="270" rx="16" fill="white" stroke="#e1e0ea"/><rect x="570" y="730" width="230" height="135" rx="12" fill="#eeedfe"/><text x="585" y="760" fill="#534AB7" font-size="30" font-family="Arial">▧</text><text x="585" y="898" fill="#222136" font-size="17" font-family="Arial" font-weight="700">آیتم واقعی 6</text><text x="585" y="925" fill="#77768a" font-size="13" font-family="Arial">✓ احراز هویت شده · نزدیک</text><text x="585" y="955" fill="#0F6E56" font-size="16" font-family="Arial" font-weight="700">17 π / روز</text><text x="585" y="978" fill="#77768a" font-size="12" font-family="Arial">★ 4.10  ·  تهران</text><rect x="834" y="720" width="250" height="270" rx="16" fill="white" stroke="#e1e0ea"/><rect x="844" y="730" width="230" height="135" rx="12" fill="#eeedfe"/><text x="859" y="760" fill="#534AB7" font-size="30" font-family="Arial">▧</text><text x="859" y="898" fill="#222136" font-size="17" font-family="Arial" font-weight="700">آیتم واقعی 7</text><text x="859" y="925" fill="#77768a" font-size="13" font-family="Arial">✓ احراز هویت شده · نزدیک</text><text x="859" y="955" fill="#0F6E56" font-size="16" font-family="Arial" font-weight="700">18 π / روز</text><text x="859" y="978" fill="#77768a" font-size="12" font-family="Arial">★ 4.11  ·  تهران</text><rect x="1108" y="720" width="250" height="270" rx="16" fill="white" stroke="#e1e0ea"/><rect x="1118" y="730" width="230" height="135" rx="12" fill="#eeedfe"/><text x="1133" y="760" fill="#534AB7" font-size="30" font-family="Arial">▧</text><text x="1133" y="898" fill="#222136" font-size="17" font-family="Arial" font-weight="700">آیتم واقعی 8</text><text x="1133" y="925" fill="#77768a" font-size="13" font-family="Arial">✓ احراز هویت شده · نزدیک</text><text x="1133" y="955" fill="#0F6E56" font-size="16" font-family="Arial" font-weight="700">19 π / روز</text><text x="1133" y="978" fill="#77768a" font-size="12" font-family="Arial">★ 4.12  ·  تهران</text>
<rect x="1040" y="185" width="260" height="360" rx="18" fill="#151426" opacity=".98"/><text x="1070" y="225" fill="white" font-size="18" font-family="Arial" font-weight="700">فیلترها</text><text x="1070" y="270" fill="#cfcde8" font-size="14" font-family="Arial">دسته‌بندی</text><text x="1070" y="310" fill="white" font-size="14" font-family="Arial">همه · ابزار · دوربین · کمپ</text><text x="1070" y="355" fill="#cfcde8" font-size="14" font-family="Arial">قیمت تا</text><text x="1070" y="395" fill="white" font-size="15" font-family="Arial">100 π</text><text x="1070" y="440" fill="#cfcde8" font-size="14" font-family="Arial">وضعیت · موقعیت</text><rect x="1070" y="475" width="200" height="45" rx="12" fill="#534AB7"/><text x="1135" y="503" fill="white" font-size="14" font-family="Arial">اعمال فیلتر</text>
<text x="286" y="1035" fill="#77768a" font-size="13" font-family="Arial">Mobile: search sticky · filter chips · bottom sheet · 2-column cards · BottomNav</text>
</svg>