<?xml version="1.0" encoding="UTF-8"?>
<svg xmlns="http://www.w3.org/2000/svg" width="1600" height="1250" viewBox="0 0 1600 1250">
<defs><linearGradient id="h" x1="0" y1="0" x2="1" y2="1"><stop stop-color="#26215C"/><stop offset="1" stop-color="#534AB7"/></linearGradient><filter id="s"><feDropShadow dx="0" dy="6" stdDeviation="10" flood-opacity=".10"/></filter></defs>
<rect width="1600" height="1250" fill="#F7F7FA"/>
<rect width="260" height="1250" fill="#fff"/><text x="36" y="58" font-family="Arial" font-size="30" font-weight="700" fill="#26215C">Rentora</text>
<rect x="22" y="94" width="216" height="50" rx="14" fill="#EEEDFE"/><text x="52" y="126" font-family="Arial" font-size="17" fill="#26215C">⌂  خانه</text>
<text x="52" y="194" font-family="Arial" font-size="17" fill="#555">⌕  کشف</text><text x="52" y="262" font-family="Arial" font-size="17" fill="#555">▣  فعالیت</text><text x="52" y="330" font-family="Arial" font-size="17" fill="#555">♙  پروفایل</text><text x="52" y="1110" font-family="Arial" font-size="15" fill="#666">تنظیمات</text>
<rect x="260" width="1340" height="78" fill="#fff"/><text x="300" y="47" font-family="Arial" font-size="18" font-weight="600">خانه</text><text x="1428" y="47" font-family="Arial" font-size="23" fill="#555">◉  ●  ◯</text>
<rect x="300" y="105" width="1240" height="225" rx="28" fill="url(#h)"/><text x="350" y="168" font-family="Arial" font-size="34" font-weight="700" fill="#fff">چیزی که لازم داری، همین اطراف پیدا کن</text><text x="350" y="202" font-family="Arial" font-size="16" fill="#E8E7FF">اجاره مستقیم از افراد، با اعتماد و ارتباط شفاف</text>
<rect x="350" y="235" width="900" height="58" rx="17" fill="#fff"/><text x="380" y="271" font-family="Arial" font-size="17" fill="#999">مثلاً «دوربین»، «دریل» یا «دوچرخه»</text><rect x="1125" y="244" width="108" height="40" rx="11" fill="#534AB7"/><text x="1152" y="270" font-family="Arial" font-size="15" fill="#fff">جستجو</text>
<text x="300" y="380" font-family="Arial" font-size="23" font-weight="700">دسته‌بندی‌ها</text>
<g filter="url(#s)" font-family="Arial"><rect x="300" y="402" width="190" height="82" rx="17" fill="#fff"/><text x="324" y="437" font-size="16">🚲  وسایل نقلیه</text><text x="324" y="462" font-size="12" fill="#888">دوچرخه و اسکوتر</text>
<rect x="505" y="402" width="190" height="82" rx="17" fill="#fff"/><text x="529" y="437" font-size="16">🛠  ابزار</text><text x="529" y="462" font-size="12" fill="#888">تجهیزات و ابزار</text>
<rect x="709" y="402" width="190" height="82" rx="17" fill="#fff"/><text x="733" y="437" font-size="16">📷  دیجیتال</text><text x="733" y="462" font-size="12" fill="#888">دوربین و کنسول</text>
<rect x="914" y="402" width="190" height="82" rx="17" fill="#fff"/><text x="938" y="437" font-size="16">🏕  سفر</text><text x="938" y="462" font-size="12" fill="#888">کمپ و سفر</text>
<rect x="1119" y="402" width="190" height="82" rx="17" fill="#fff"/><text x="1143" y="437" font-size="16">🎉  رویداد</text><text x="1143" y="462" font-size="12" fill="#888">مهمانی و مراسم</text>
<rect x="1324" y="402" width="216" height="82" rx="17" fill="#EEEDFE"/><text x="1372" y="445" font-size="16" fill="#534AB7">•••  همه دسته‌ها</text></g>
<text x="300" y="545" font-family="Arial" font-size="23" font-weight="700">نزدیک تو</text><text x="300" y="572" font-family="Arial" font-size="14" fill="#777">موارد قابل دسترسی در اطراف تو</text><text x="1440" y="558" font-family="Arial" font-size="14" fill="#534AB7">مشاهده همه ›</text>
<g filter="url(#s)" font-family="Arial">
<rect x="300" y="600" width="285" height="350" rx="20" fill="#fff"/><rect x="300" y="600" width="285" height="170" rx="20" fill="#DDD"/><text x="408" y="690" font-size="32" fill="#999">IMAGE</text><circle cx="550" cy="630" r="21" fill="#fff"/><text x="541" y="637" font-size="20">♡</text><text x="322" y="802" font-size="18" font-weight="700">دریل حرفه‌ای</text><rect x="322" y="820" width="84" height="23" rx="12" fill="#E7F5EC"/><text x="337" y="836" font-size="11" fill="#26734D">✓ احراز شده</text><text x="322" y="867" font-size="13" fill="#666">۳.۲ km · ابزار</text><text x="322" y="906" font-size="17" font-weight="700" fill="#26215C">۱۸۰ Pi <tspan font-size="11" font-weight="400" fill="#777">/ روز</tspan></text><text x="500" y="906" font-size="13" fill="#777">★ 4.9</text>
<rect x="610" y="600" width="285" height="350" rx="20" fill="#fff"/><rect x="610" y="600" width="285" height="170" rx="20" fill="#DDD"/><text x="718" y="690" font-size="32" fill="#999">IMAGE</text><circle cx="860" cy="630" r="21" fill="#fff"/><text x="851" y="637" font-size="20">♡</text><text x="632" y="802" font-size="18" font-weight="700">دوربین Sony</text><rect x="632" y="820" width="84" height="23" rx="12" fill="#E7F5EC"/><text x="647" y="836" font-size="11" fill="#26734D">✓ احراز شده</text><text x="632" y="867" font-size="13" fill="#666">۴.۱ km · دیجیتال</text><text x="632" y="906" font-size="17" font-weight="700" fill="#26215C">۲۵۰ Pi <tspan font-size="11" font-weight="400" fill="#777">/ روز</tspan></text><text x="810" y="906" font-size="13" fill="#777">★ 4.8</text>
<rect x="920" y="600" width="285" height="350" rx="20" fill="#fff"/><rect x="920" y="600" width="285" height="170" rx="20" fill="#DDD"/><text x="1028" y="690" font-size="32" fill="#999">IMAGE</text><circle cx="1170" cy="630" r="21" fill="#fff"/><text x="1161" y="637" font-size="20">♡</text><text x="942" y="802" font-size="18" font-weight="700">دوچرخه شهری</text><rect x="942" y="820" width="86" height="23" rx="12" fill="#F3F1FF"/><text x="957" y="836" font-size="11" fill="#534AB7">✓ صاحب معتبر</text><text x="942" y="867" font-size="13" fill="#666">۱.۸ km · نقلیه</text><text x="942" y="906" font-size="17" font-weight="700" fill="#26215C">۹۰ Pi <tspan font-size="11" font-weight="400" fill="#777">/ روز</tspan></text><text x="1120" y="906" font-size="13" fill="#777">★ 4.7</text></g>
<rect x="1230" y="600" width="310" height="350" rx="20" fill="#fff" filter="url(#s)"/><rect x="1230" y="600" width="310" height="170" rx="20" fill="#EEE"/><text x="1345" y="690" font-family="Arial" font-size="32" fill="#999">IMAGE</text><text x="1252" y="802" font-family="Arial" font-size="18" font-weight="700">پیشنهاد برای تو</text><text x="1252" y="835" font-family="Arial" font-size="13" fill="#666">بر اساس کشف و تعامل اخیر</text><text x="1252" y="884" font-family="Arial" font-size="17" font-weight="700" fill="#26215C">۳۲۰ Pi / روز</text><text x="1252" y="913" font-family="Arial" font-size="13" fill="#777">★ 4.9 · ۵.۶ km</text>
<text x="300" y="1010" font-family="Arial" font-size="23" font-weight="700">چرا Rentora؟</text>
<g font-family="Arial"><rect x="300" y="1035" width="390" height="115" rx="20" fill="#fff"/><text x="330" y="1072" font-size="17" font-weight="700" fill="#26215C">✓ احراز هویت</text><text x="330" y="1102" font-size="13" fill="#666">نشانه‌های اعتماد قابل مشاهده</text>
<rect x="710" y="1035" width="390" height="115" rx="20" fill="#fff"/><text x="740" y="1072" font-size="17" font-weight="700" fill="#26215C">★ امتیاز و سابقه</text><text x="740" y="1102" font-size="13" fill="#666">بازخورد و سابقه فعالیت</text>
<rect x="1120" y="1035" width="420" height="115" rx="20" fill="#fff"/><text x="1150" y="1072" font-size="17" font-weight="700" fill="#26215C">⌁ ارتباط داخل پلتفرم</text><text x="1150" y="1102" font-size="13" fill="#666">گفت‌وگو و گزارش برای تجربه شفاف‌تر</text></g>
</svg>