<svg xmlns="http://www.w3.org/2000/svg" width="1600" height="1200" viewBox="0 0 1600 1200"><defs><linearGradient id="g" x1="0" x2="1"><stop stop-color="#26215C"/><stop offset="1" stop-color="#534AB7"/></linearGradient></defs><rect width="1600" height="1200" fill="#F7F7FA"/><text x="80" y="62" font-family="Arial" font-size="30" font-weight="700" fill="#26215C">Rentora • Hybrid V3</text><text x="80" y="92" font-family="Arial" font-size="15" fill="#777">Home + Discover • B Community + A Marketplace + C Minimal</text><rect x="60" y="130" width="720" height="1000" rx="30" fill="#fff"/><rect x="60" y="130" width="720" height="285" rx="30" fill="url(#g)"/><text x="725" y="200" text-anchor="end" font-family="Arial" font-size="30" font-weight="700" fill="#fff">از آدم‌های اطرافت اجاره کن</text><text x="725" y="232" text-anchor="end" font-family="Arial" font-size="14" fill="#E8E7FF">چیزهایی که لازم داری، شاید همین نزدیکی باشند</text><rect x="105" y="275" width="630" height="78" rx="21" fill="#fff"/><text x="690" y="307" text-anchor="end" font-family="Arial" font-size="14" fill="#777">چه چیزی نیاز داری؟</text><text x="690" y="332" text-anchor="end" font-family="Arial" font-size="11" fill="#aaa">ابزار، دوربین، دوچرخه، تجهیزات...</text><circle cx="138" cy="314" r="21" fill="#EEEDFE"/><text x="138" y="321" text-anchor="middle" font-family="Arial" font-size="20" fill="#534AB7">⌕</text><text x="725" y="458" text-anchor="end" font-family="Arial" font-size="19" font-weight="700" fill="#26215C">پیدا کردن را ساده شروع کن</text><g font-family="Arial" font-size="12"><rect x="515" y="485" width="220" height="50" rx="14" fill="#EEEDFE"/><text x="625" y="516" text-anchor="middle">📍 نزدیک من</text><rect x="280" y="485" width="220" height="50" rx="14" fill="#F1F1F5"/><text x="390" y="516" text-anchor="middle">✓ احراز هویت شده</text><rect x="45" y="485" width="220" height="50" rx="14" fill="#F1F1F5"/><text x="155" y="516" text-anchor="middle">★ صاحبان معتبر</text></g><text x="725" y="590" text-anchor="end" font-family="Arial" font-size="19" font-weight="700">پیشنهادهای نزدیک</text><g><rect x="505" y="620" width="230" height="260" rx="18" fill="#fff" stroke="#eee"/><rect x="505" y="620" width="230" height="135" rx="18" fill="#ddd"/><text x="620" y="694" text-anchor="middle" font-family="Arial" font-size="11" fill="#777">IMAGE</text><text x="705" y="795" text-anchor="end" font-family="Arial" font-size="13" font-weight="700">دوچرخه شهری</text><text x="705" y="820" text-anchor="end" font-family="Arial" font-size="11" fill="#555">۱۲ π • ★ 4.9</text><text x="705" y="845" text-anchor="end" font-family="Arial" font-size="10" fill="#777">✓ مالک احراز شده</text><rect x="260" y="620" width="230" height="260" rx="18" fill="#fff" stroke="#eee"/><rect x="260" y="620" width="230" height="135" rx="18" fill="#ddd"/><text x="375" y="694" text-anchor="middle" font-family="Arial" font-size="11" fill="#777">IMAGE</text><text x="460" y="795" text-anchor="end" font-family="Arial" font-size="13" font-weight="700">دریل حرفه‌ای</text><text x="460" y="820" text-anchor="end" font-family="Arial" font-size="11" fill="#555">۸ π • ★ 4.8</text><text x="460" y="845" text-anchor="end" font-family="Arial" font-size="10" fill="#777">✓ مالک احراز شده</text><rect x="15" y="620" width="230" height="260" rx="18" fill="#fff" stroke="#eee"/><rect x="15" y="620" width="230" height="135" rx="18" fill="#ddd"/><text x="130" y="694" text-anchor="middle" font-family="Arial" font-size="11" fill="#777">IMAGE</text><text x="215" y="795" text-anchor="end" font-family="Arial" font-size="13" font-weight="700">دوربین اکشن</text><text x="215" y="820" text-anchor="end" font-family="Arial" font-size="11" fill="#555">۱۵ π • ★ 4.7</text><text x="215" y="845" text-anchor="end" font-family="Arial" font-size="10" fill="#777">✓ مالک احراز شده</text></g><rect x="105" y="925" width="630" height="145" rx="20" fill="#F3F1FF"/><text x="700" y="962" text-anchor="end" font-family="Arial" font-size="17" font-weight="700" fill="#26215C">اعتماد، داخل تجربه دیده می‌شود</text><text x="700" y="992" text-anchor="end" font-family="Arial" font-size="11" fill="#555">احراز هویت • امتیاز • ارتباط داخل پلتفرم • گزارش</text><text x="700" y="1020" text-anchor="end" font-family="Arial" font-size="11" fill="#555">قیمت و وضعیت رزرو از سرور تأیید می‌شود</text><rect x="820" y="130" width="720" height="1000" rx="30" fill="#fff"/><text x="1480" y="200" text-anchor="end" font-family="Arial" font-size="30" font-weight="700" fill="#26215C">کشف کن</text><text x="1480" y="232" text-anchor="end" font-family="Arial" font-size="14" fill="#777">جستجو، فیلتر و انتخاب</text><rect x="865" y="275" width="630" height="64" rx="18" fill="#F4F3FA" stroke="#ddd"/><text x="1460" y="314" text-anchor="end" font-family="Arial" font-size="13" fill="#777">دوربین، ابزار، دوچرخه...</text><circle cx="898" cy="307" r="18" fill="#EEEDFE"/><text x="898" y="314" text-anchor="middle" font-family="Arial" font-size="18" fill="#534AB7">⌕</text><g font-family="Arial" font-size="11"><rect x="865" y="365" width="115" height="42" rx="12" fill="#EEEDFE"/><text x="922" y="391" text-anchor="middle">دسته‌بندی</text><rect x="990" y="365" width="115" height="42" rx="12" fill="#F1F1F5"/><text x="1047" y="391" text-anchor="middle">قیمت</text><rect x="1115" y="365" width="115" height="42" rx="12" fill="#F1F1F5"/><text x="1172" y="391" text-anchor="middle">مکان</text><rect x="1240" y="365" width="115" height="42" rx="12" fill="#F1F1F5"/><text x="1297" y="391" text-anchor="middle">اعتماد</text><rect x="1365" y="365" width="130" height="42" rx="12" fill="#F1F1F5"/><text x="1430" y="391" text-anchor="middle">فیلتر بیشتر</text></g><text x="1480" y="455" text-anchor="end" font-family="Arial" font-size="18" font-weight="700">آیتم‌های موجود</text><text x="1480" y="480" text-anchor="end" font-family="Arial" font-size="11" fill="#888">مرتب‌سازی: مرتبط‌ترین</text><g><rect x="865" y="510" width="195" height="260" rx="16" fill="#fff" stroke="#eee"/><rect x="865" y="510" width="195" height="125" rx="16" fill="#ddd"/><text x="962" y="580" text-anchor="middle" font-family="Arial" font-size="11" fill="#777">IMAGE</text><text x="1040" y="680" text-anchor="end" font-family="Arial" font-size="12" font-weight="700">دوربین اکشن</text><text x="1040" y="705" text-anchor="end" font-family="Arial" font-size="10" fill="#555">۱۵ π • ★ 4.7</text><text x="1040" y="730" text-anchor="end" font-family="Arial" font-size="9" fill="#777">✓ KYC • نزدیک</text><rect x="1075" y="510" width="195" height="260" rx="16" fill="#fff" stroke="#eee"/><rect x="1075" y="510" width="195" height="125" rx="16" fill="#ddd"/><text x="1172" y="580" text-anchor="middle" font-family="Arial" font-size="11" fill="#777">IMAGE</text><text x="1250" y="680" text-anchor="end" font-family="Arial" font-size="12" font-weight="700">دریل حرفه‌ای</text><text x="1250" y="705" text-anchor="end" font-family="Arial" font-size="10" fill="#555">۸ π • ★ 4.8</text><text x="1250" y="730" text-anchor="end" font-family="Arial" font-size="9" fill="#777">✓ KYC • نزدیک</text><rect x="1285" y="510" width="210" height="260" rx="16" fill="#fff" stroke="#eee"/><rect x="1285" y="510" width="210" height="125" rx="16" fill="#ddd"/><text x="1390" y="580" text-anchor="middle" font-family="Arial" font-size="11" fill="#777">IMAGE</text><text x="1475" y="680" text-anchor="end" font-family="Arial" font-size="12" font-weight="700">دوچرخه شهری</text><text x="1475" y="705" text-anchor="end" font-family="Arial" font-size="10" fill="#555">۱۲ π • ★ 4.9</text><text x="1475" y="730" text-anchor="end" font-family="Arial" font-size="9" fill="#777">✓ KYC • نزدیک</text></g><rect x="865" y="815" width="630" height="255" rx="20" fill="#F7F6FC"/><text x="1460" y="858" text-anchor="end" font-family="Arial" font-size="17" font-weight="700" fill="#26215C">کشف محلی</text><text x="1460" y="890" text-anchor="end" font-family="Arial" font-size="11" fill="#555">آیتم‌های نزدیک • صاحبان احراز شده • امتیازهای واقعی</text><rect x="900" y="920" width="175" height="100" rx="14" fill="#ddd"/><rect x="1090" y="920" width="175" height="100" rx="14" fill="#ddd"/><rect x="1280" y="920" width="175" height="100" rx="14" fill="#ddd"/><text x="1460" y="1050" text-anchor="end" font-family="Arial" font-size="11" fill="#777">فیلترهای بیشتر در موبایل به صورت Bottom Sheet</text></g></svg>